<mxfile host="app.diagrams.net" modified="2022-05-27T13:46:15.420Z" agent="5.0 (Windows NT 10.0; Win64; x64) AppleWebKit/537.36 (KHTML, like Gecko) Chrome/101.0.4951.67 Safari/537.36" etag="0BvrjeD3w1GVhJnTRKZH" version="18.1.3" type="github">
  <diagram id="Dwu18QJnTga-YZJTzSKi" name="Page-1">
    <mxGraphModel dx="924" dy="536" grid="1" gridSize="10" guides="1" tooltips="1" connect="1" arrows="1" fold="1" page="1" pageScale="1" pageWidth="827" pageHeight="1169" math="0" shadow="0">
      <root>
        <mxCell id="0" />
        <mxCell id="1" parent="0" />
        <mxCell id="yXIzvyi5pwtqv-mLRPcx-51" value="" style="shape=image;html=1;verticalAlign=top;verticalLabelPosition=bottom;labelBackgroundColor=#ffffff;imageAspect=0;aspect=fixed;image=https://cdn1.iconfinder.com/data/icons/ionicons-fill-vol-2/512/logo-react-128.png;fontFamily=Verdana;" parent="1" vertex="1">
          <mxGeometry x="440" y="126.25" width="30" height="30" as="geometry" />
        </mxCell>
        <mxCell id="yXIzvyi5pwtqv-mLRPcx-41" value="" style="shape=image;html=1;verticalAlign=top;verticalLabelPosition=bottom;labelBackgroundColor=#ffffff;imageAspect=0;aspect=fixed;image=https://cdn0.iconfinder.com/data/icons/long-shadow-web-icons/512/nodejs-128.png" parent="1" vertex="1">
          <mxGeometry x="610" y="340" width="27.59" height="27.59" as="geometry" />
        </mxCell>
        <mxCell id="yXIzvyi5pwtqv-mLRPcx-1" value="" style="verticalLabelPosition=bottom;html=1;verticalAlign=top;align=center;strokeColor=none;fillColor=#00BEF2;shape=mxgraph.azure.cloud;" parent="1" vertex="1">
          <mxGeometry x="205" y="105.5" width="50" height="32.5" as="geometry" />
        </mxCell>
        <mxCell id="yXIzvyi5pwtqv-mLRPcx-5" value="" style="aspect=fixed;html=1;points=[];align=center;image;fontSize=12;image=img/lib/azure2/databases/Azure_Database_MySQL_Server.svg;" parent="1" vertex="1">
          <mxGeometry x="422.75" y="279.71" width="64.5" height="86" as="geometry" />
        </mxCell>
        <mxCell id="yXIzvyi5pwtqv-mLRPcx-7" value="" style="aspect=fixed;html=1;points=[];align=center;image;fontSize=12;image=img/lib/azure2/identity/Azure_AD_B2C.svg;" parent="1" vertex="1">
          <mxGeometry x="598.38" y="109.11" width="50.83" height="47.14" as="geometry" />
        </mxCell>
        <mxCell id="yXIzvyi5pwtqv-mLRPcx-14" value="" style="verticalLabelPosition=bottom;html=1;verticalAlign=top;align=center;strokeColor=none;fillColor=#00BEF2;shape=mxgraph.azure.user;" parent="1" vertex="1">
          <mxGeometry x="70" y="105.5" width="37.5" height="40" as="geometry" />
        </mxCell>
        <mxCell id="yXIzvyi5pwtqv-mLRPcx-15" value="" style="aspect=fixed;html=1;points=[];align=center;image;fontSize=12;image=img/lib/azure2/iot/IoT_Hub.svg;" parent="1" vertex="1">
          <mxGeometry x="270" y="292.21" width="61" height="61" as="geometry" />
        </mxCell>
        <mxCell id="yXIzvyi5pwtqv-mLRPcx-16" value="" style="shape=image;html=1;verticalAlign=top;verticalLabelPosition=bottom;labelBackgroundColor=#ffffff;imageAspect=0;aspect=fixed;image=https://cdn1.iconfinder.com/data/icons/material-device/20/nfc-128.png" parent="1" vertex="1">
          <mxGeometry x="35" y="262.21" width="30" height="30" as="geometry" />
        </mxCell>
        <mxCell id="yXIzvyi5pwtqv-mLRPcx-23" value="" style="sketch=0;aspect=fixed;html=1;points=[];align=center;image;fontSize=12;image=img/lib/mscae/Functions.svg;direction=east;" parent="1" vertex="1">
          <mxGeometry x="610.0000000000001" y="282.40999999999997" width="95.21" height="87.59" as="geometry" />
        </mxCell>
        <mxCell id="yXIzvyi5pwtqv-mLRPcx-31" value="" style="shape=image;html=1;verticalAlign=top;verticalLabelPosition=bottom;labelBackgroundColor=#ffffff;imageAspect=0;aspect=fixed;image=https://cdn1.iconfinder.com/data/icons/material-device/20/nfc-128.png" parent="1" vertex="1">
          <mxGeometry x="35" y="302.71" width="30" height="30" as="geometry" />
        </mxCell>
        <mxCell id="yXIzvyi5pwtqv-mLRPcx-32" value="" style="shape=image;html=1;verticalAlign=top;verticalLabelPosition=bottom;labelBackgroundColor=#ffffff;imageAspect=0;aspect=fixed;image=https://cdn1.iconfinder.com/data/icons/material-device/20/nfc-128.png" parent="1" vertex="1">
          <mxGeometry x="35" y="343.21" width="30" height="30" as="geometry" />
        </mxCell>
        <mxCell id="yXIzvyi5pwtqv-mLRPcx-42" value="" style="aspect=fixed;html=1;points=[];align=center;image;fontSize=12;image=img/lib/azure2/compute/Container_Instances.svg;" parent="1" vertex="1">
          <mxGeometry x="403" y="87.75" width="64" height="68" as="geometry" />
        </mxCell>
        <mxCell id="yXIzvyi5pwtqv-mLRPcx-45" value="Azure Functions" style="text;html=1;align=center;verticalAlign=middle;resizable=0;points=[];autosize=1;strokeColor=none;fillColor=none;fontFamily=Verdana;" parent="1" vertex="1">
          <mxGeometry x="602.61" y="365.71" width="110" height="20" as="geometry" />
        </mxCell>
        <mxCell id="yXIzvyi5pwtqv-mLRPcx-46" value="IL Cloud" style="text;html=1;align=center;verticalAlign=middle;resizable=0;points=[];autosize=1;strokeColor=none;fillColor=none;fontFamily=Verdana;" parent="1" vertex="1">
          <mxGeometry x="200" y="138" width="60" height="20" as="geometry" />
        </mxCell>
        <mxCell id="yXIzvyi5pwtqv-mLRPcx-47" value="" style="endArrow=classic;startArrow=classic;html=1;rounded=0;" parent="1" edge="1">
          <mxGeometry width="50" height="50" relative="1" as="geometry">
            <mxPoint x="661.5" y="267.83" as="sourcePoint" />
            <mxPoint x="662" y="200" as="targetPoint" />
          </mxGeometry>
        </mxCell>
        <mxCell id="yXIzvyi5pwtqv-mLRPcx-48" value="" style="endArrow=classic;startArrow=classic;html=1;rounded=0;" parent="1" edge="1">
          <mxGeometry width="50" height="50" relative="1" as="geometry">
            <mxPoint x="281.78" y="126.25000000000001" as="sourcePoint" />
            <mxPoint x="381.78" y="126.25000000000001" as="targetPoint" />
            <Array as="points">
              <mxPoint x="331.78" y="126.25000000000001" />
            </Array>
          </mxGeometry>
        </mxCell>
        <mxCell id="yXIzvyi5pwtqv-mLRPcx-49" value="" style="endArrow=classic;startArrow=classic;html=1;rounded=0;" parent="1" edge="1">
          <mxGeometry width="50" height="50" relative="1" as="geometry">
            <mxPoint x="490" y="322" as="sourcePoint" />
            <mxPoint x="598.38" y="322.21" as="targetPoint" />
            <Array as="points" />
          </mxGeometry>
        </mxCell>
        <mxCell id="yXIzvyi5pwtqv-mLRPcx-50" value="User Interface" style="text;html=1;align=center;verticalAlign=middle;resizable=0;points=[];autosize=1;strokeColor=none;fillColor=none;fontFamily=Verdana;" parent="1" vertex="1">
          <mxGeometry x="385" y="156.24999999999997" width="100" height="20" as="geometry" />
        </mxCell>
        <mxCell id="yXIzvyi5pwtqv-mLRPcx-53" value="MySQL Server" style="text;html=1;align=center;verticalAlign=middle;resizable=0;points=[];autosize=1;strokeColor=none;fillColor=none;fontFamily=Verdana;" parent="1" vertex="1">
          <mxGeometry x="405" y="365.71" width="100" height="20" as="geometry" />
        </mxCell>
        <mxCell id="yXIzvyi5pwtqv-mLRPcx-55" value="RFID Tag" style="text;html=1;align=center;verticalAlign=middle;resizable=0;points=[];autosize=1;strokeColor=none;fillColor=none;fontFamily=Verdana;rotation=270;" parent="1" vertex="1">
          <mxGeometry x="-20" y="312.71" width="70" height="20" as="geometry" />
        </mxCell>
        <mxCell id="yXIzvyi5pwtqv-mLRPcx-59" value="IOT Hub" style="text;html=1;align=center;verticalAlign=middle;resizable=0;points=[];autosize=1;strokeColor=none;fillColor=none;fontFamily=Verdana;" parent="1" vertex="1">
          <mxGeometry x="270" y="353.21" width="60" height="20" as="geometry" />
        </mxCell>
        <mxCell id="yXIzvyi5pwtqv-mLRPcx-60" value="" style="endArrow=classic;startArrow=classic;html=1;rounded=0;" parent="1" edge="1">
          <mxGeometry width="50" height="50" relative="1" as="geometry">
            <mxPoint x="344" y="322.21" as="sourcePoint" />
            <mxPoint x="414" y="322.21" as="targetPoint" />
            <Array as="points" />
          </mxGeometry>
        </mxCell>
        <mxCell id="yXIzvyi5pwtqv-mLRPcx-61" value="" style="endArrow=classic;startArrow=classic;html=1;rounded=0;" parent="1" edge="1">
          <mxGeometry width="50" height="50" relative="1" as="geometry">
            <mxPoint x="71.63" y="322.41999999999996" as="sourcePoint" />
            <mxPoint x="105.88" y="322.21" as="targetPoint" />
            <Array as="points">
              <mxPoint x="101.63" y="322.41999999999996" />
            </Array>
          </mxGeometry>
        </mxCell>
        <mxCell id="yXIzvyi5pwtqv-mLRPcx-65" value="" style="endArrow=classic;startArrow=classic;html=1;rounded=0;" parent="1" edge="1">
          <mxGeometry width="50" height="50" relative="1" as="geometry">
            <mxPoint x="130" y="125" as="sourcePoint" />
            <mxPoint x="180" y="125" as="targetPoint" />
            <Array as="points">
              <mxPoint x="180" y="125" />
            </Array>
          </mxGeometry>
        </mxCell>
        <mxCell id="yXIzvyi5pwtqv-mLRPcx-68" value="" style="aspect=fixed;html=1;points=[];align=center;image;fontSize=12;image=img/lib/azure2/security/Key_Vaults.svg;fontFamily=Verdana;" parent="1" vertex="1">
          <mxGeometry x="661.71" y="105.5" width="43.5" height="43.5" as="geometry" />
        </mxCell>
        <mxCell id="yXIzvyi5pwtqv-mLRPcx-70" value="" style="endArrow=classic;startArrow=classic;html=1;rounded=0;" parent="1" edge="1">
          <mxGeometry width="50" height="50" relative="1" as="geometry">
            <mxPoint x="480" y="126.25" as="sourcePoint" />
            <mxPoint x="580" y="126.25" as="targetPoint" />
            <Array as="points">
              <mxPoint x="530" y="126.25" />
            </Array>
          </mxGeometry>
        </mxCell>
        <mxCell id="yXIzvyi5pwtqv-mLRPcx-71" value="Azure AD" style="text;html=1;align=center;verticalAlign=middle;resizable=0;points=[];autosize=1;strokeColor=none;fillColor=none;fontFamily=Verdana;" parent="1" vertex="1">
          <mxGeometry x="620" y="158" width="70" height="20" as="geometry" />
        </mxCell>
        <mxCell id="yXIzvyi5pwtqv-mLRPcx-72" value="Azure Key Vault" style="text;html=1;align=center;verticalAlign=middle;resizable=0;points=[];autosize=1;strokeColor=none;fillColor=none;fontFamily=Verdana;" parent="1" vertex="1">
          <mxGeometry x="602.61" y="176.25" width="110" height="20" as="geometry" />
        </mxCell>
        <mxCell id="yXIzvyi5pwtqv-mLRPcx-73" value="&lt;div&gt;Client&lt;/div&gt;" style="text;html=1;align=center;verticalAlign=middle;resizable=0;points=[];autosize=1;strokeColor=none;fillColor=none;fontFamily=Verdana;" parent="1" vertex="1">
          <mxGeometry x="65" y="150" width="50" height="20" as="geometry" />
        </mxCell>
        <mxCell id="TIJiQymNzQaopjzh44wD-4" value="" style="endArrow=classic;startArrow=classic;html=1;rounded=0;" edge="1" parent="1">
          <mxGeometry width="50" height="50" relative="1" as="geometry">
            <mxPoint x="220.75" y="322.42" as="sourcePoint" />
            <mxPoint x="255.0000000000001" y="322.2100000000001" as="targetPoint" />
            <Array as="points">
              <mxPoint x="250.75" y="322.42" />
            </Array>
          </mxGeometry>
        </mxCell>
        <mxCell id="TIJiQymNzQaopjzh44wD-5" value="" style="shape=image;html=1;verticalAlign=top;verticalLabelPosition=bottom;labelBackgroundColor=#ffffff;imageAspect=0;aspect=fixed;image=https://cdn2.iconfinder.com/data/icons/boxicons-regular-vol-1/24/bx-barcode-reader-128.png" vertex="1" parent="1">
          <mxGeometry x="116.78999999999999" y="284.6" width="83.21" height="83.21" as="geometry" />
        </mxCell>
        <mxCell id="TIJiQymNzQaopjzh44wD-6" value="Tag reader" style="text;html=1;align=center;verticalAlign=middle;resizable=0;points=[];autosize=1;strokeColor=none;fillColor=none;" vertex="1" parent="1">
          <mxGeometry x="123.39" y="360" width="70" height="20" as="geometry" />
        </mxCell>
        <mxCell id="TIJiQymNzQaopjzh44wD-7" value="" style="endArrow=block;startArrow=block;endFill=1;startFill=1;html=1;rounded=0;" edge="1" parent="1">
          <mxGeometry width="160" relative="1" as="geometry">
            <mxPoint x="487.25" y="170" as="sourcePoint" />
            <mxPoint x="607.25" y="270" as="targetPoint" />
          </mxGeometry>
        </mxCell>
      </root>
    </mxGraphModel>
  </diagram>
</mxfile>
